<svg width="518" height="518" viewBox="0 0 518 518" fill="none" xmlns="http://www.w3.org/2000/svg">
<path d="M258.498 8.43704C399.025 8.4373 512.929 120.277 512.929 258.219C512.929 396.161 399.025 508 258.498 508.001C117.971 508.001 4.06656 396.161 4.06641 258.219C4.06641 120.277 117.971 8.43704 258.498 8.43704Z" fill="#5AF3C5" stroke="black"/>
<path d="M39.8285 245.31C26.3123 251.046 26.4591 270.254 40.0614 275.783L96.8606 298.871C106.812 302.917 110.804 314.89 105.27 324.098L73.6898 376.65C66.1266 389.236 77.5359 404.69 91.7908 401.168L151.313 386.461C161.741 383.884 172.009 391.224 172.944 401.926L178.284 463.005C179.563 477.632 197.877 483.429 207.339 472.201L246.849 425.317C253.771 417.102 266.392 417.006 273.439 425.113L313.661 471.388C323.294 482.471 341.517 476.395 342.573 461.749L346.978 400.595C347.751 389.881 357.904 382.385 368.371 384.802L428.111 398.597C442.418 401.901 453.59 386.275 445.835 373.806L413.455 321.742C407.782 312.62 411.59 300.587 421.478 296.39L477.918 272.437C491.434 266.7 491.287 247.492 477.685 241.963L420.886 218.874C410.934 214.829 406.943 202.856 412.476 193.648L444.056 141.095C451.619 128.509 440.21 113.056 425.955 116.578L366.433 131.285C356.005 133.861 345.738 126.522 344.802 115.821L339.462 54.7405C338.182 40.1132 319.869 34.3176 310.407 45.5453L270.896 92.4297C263.974 100.644 251.353 100.741 244.306 92.6329L204.084 46.3579C194.452 35.2761 176.229 41.3511 175.174 55.9962L170.768 117.151C169.996 127.865 159.842 135.361 149.375 132.944L89.6352 119.149C75.3283 115.845 64.1567 131.471 71.9111 143.939L104.291 196.004C109.965 205.126 106.157 217.158 96.2681 221.355L39.8285 245.31Z" fill="white" stroke="black"/>
</svg>
