<svg width="247" height="247" viewBox="0 0 247 247" fill="none" xmlns="http://www.w3.org/2000/svg">
<path d="M123.005 240.212C123.084 240.746 123.811 240.779 123.971 240.312L123.995 240.212L136.722 153.818C136.867 152.834 137.902 152.279 138.786 152.653L138.96 152.741L214.44 196.655C214.907 196.927 215.386 196.379 215.12 195.963L215.058 195.882L155.448 132.066C154.769 131.339 154.979 130.184 155.823 129.726L156.001 129.644L237.396 98.0117C237.899 97.8162 237.769 97.0996 237.278 97.0479L237.176 97.0469L150.116 103.863C149.124 103.941 148.354 103.056 148.521 102.11L148.567 101.921L174.585 18.5615C174.746 18.0465 174.105 17.7005 173.759 18.0518L173.693 18.1318L124.742 90.4473C124.184 91.271 123.011 91.3225 122.377 90.6016L122.258 90.4473L73.3066 18.1318C73.004 17.6848 72.3342 17.9704 72.3936 18.4609L72.415 18.5615L98.4326 101.921C98.7288 102.87 98.0382 103.819 97.0791 103.866L96.8838 103.863L9.82422 97.0469C9.28634 97.0051 9.09242 97.7064 9.5127 97.9658L9.60449 98.0117L90.999 129.644C91.9264 130.004 92.2375 131.136 91.6758 131.915L91.5518 132.066L31.9424 195.882C31.5743 196.276 32.002 196.866 32.4668 196.699L32.5596 196.655L108.04 152.741C108.9 152.241 109.978 152.703 110.237 153.628L110.278 153.818L123.005 240.212Z" fill="white" stroke="black"/>
</svg>
